<?xml version="1.0" encoding="utf-8"?>
<!-- Generator: Adobe Illustrator 18.1.1, SVG Export Plug-In . SVG Version: 6.00 Build 0)  -->
<svg version="1.1" id="Layer_1" xmlns="http://www.w3.org/2000/svg" xmlns:xlink="http://www.w3.org/1999/xlink" x="0px" y="0px"
	 viewBox="0 0 100 100" enable-background="new 0 0 100 100" xml:space="preserve">
<path fill="#FFFFFF" d="M84.1,1.4L68.9,24.6h9.6L59.8,48.2h9.1L35.7,85.1l14.7-30.2H40.2L52,32.7H41.6L53.3,1.3H16.5
	c-1.8,0-11.6,0-11.6,11.6v57c0,11.6,9.7,11.6,11.6,11.6h13.1c0.8,3.6,1.4,10.5-3.4,16.8c0,0,13.7,0,24.6-16.8h31.6
	c1.8,0,11.6,0.3,11.6-11.6v-57C93.9,3.5,87.6,1.7,84.1,1.4z"/>
</svg>
